<svg width="620" height="375" viewBox="0 0 620 375" xmlns="http://www.w3.org/2000/svg" font-family="Segoe UI, Helvetica, Arial, sans-serif">
<rect x="0" y="0" width="620" height="375" fill="#1a1a1a"/>
<rect x="24" y="10" width="572" height="355" rx="10" fill="#2a2a2a" stroke="#454545" stroke-width="1.5"/>
<path d="M 24 40 Q 24 10 34 10 L 586 10 Q 596 10 596 40 Z" fill="#a15a2f"/>
<text x="38" y="30" fill="#ffffff" font-size="14" font-weight="600">SeamStitch Swap Assemble</text>
<rect x="25" y="39" width="570" height="24" fill="#242424" opacity="0.4"/>
<circle cx="596" cy="51.0" r="5.5" fill="#b0bec5" stroke="#1a1a1a" stroke-width="1.5"/>
<text x="584" y="55.0" fill="#e8e8e8" font-size="12" text-anchor="end">video_path</text>
<circle cx="596" cy="75.0" r="5.5" fill="#ce93d8" stroke="#1a1a1a" stroke-width="1.5"/>
<text x="584" y="79.0" fill="#e8e8e8" font-size="12" text-anchor="end">Filenames</text>
<rect x="25" y="87" width="570" height="24" fill="#242424" opacity="0.4"/>
<circle cx="596" cy="99.0" r="5.5" fill="#b0bec5" stroke="#1a1a1a" stroke-width="1.5"/>
<text x="584" y="103.0" fill="#e8e8e8" font-size="12" text-anchor="end">report</text>
<line x1="34" y1="120" x2="586" y2="120" stroke="#454545" stroke-width="1"/>
<rect x="34" y="123" width="552" height="19" rx="4" fill="#3a3a3a" stroke="#555" stroke-width="1"/>
<text x="42" y="136" fill="#9a9a9a" font-size="11">assemble_plan</text>
<text x="578" y="136" fill="#e8e8e8" font-size="11" text-anchor="end"></text>
<rect x="25" y="144" width="570" height="24" fill="#242424" opacity="0.4"/>
<rect x="34" y="147" width="552" height="19" rx="4" fill="#3a3a3a" stroke="#555" stroke-width="1"/>
<text x="42" y="160" fill="#9a9a9a" font-size="11">hand_back_frames</text>
<text x="578" y="160" fill="#e8e8e8" font-size="11" text-anchor="end">12</text>
<rect x="34" y="171" width="552" height="19" rx="4" fill="#3a3a3a" stroke="#555" stroke-width="1"/>
<text x="42" y="184" fill="#9a9a9a" font-size="11">format</text>
<text x="578" y="184" fill="#e8e8e8" font-size="11" text-anchor="end">video/h264-mp4</text>
<rect x="25" y="192" width="570" height="24" fill="#242424" opacity="0.4"/>
<rect x="34" y="195" width="552" height="19" rx="4" fill="#3a3a3a" stroke="#555" stroke-width="1"/>
<text x="42" y="208" fill="#9a9a9a" font-size="11">crf</text>
<text x="578" y="208" fill="#e8e8e8" font-size="11" text-anchor="end">12</text>
<rect x="34" y="219" width="552" height="19" rx="4" fill="#3a3a3a" stroke="#555" stroke-width="1"/>
<text x="42" y="232" fill="#9a9a9a" font-size="11">pix_fmt</text>
<text x="578" y="232" fill="#e8e8e8" font-size="11" text-anchor="end">yuv420p</text>
<rect x="25" y="240" width="570" height="24" fill="#242424" opacity="0.4"/>
<rect x="34" y="243" width="552" height="19" rx="4" fill="#3a3a3a" stroke="#555" stroke-width="1"/>
<text x="42" y="256" fill="#9a9a9a" font-size="11">filename_prefix</text>
<text x="578" y="256" fill="#e8e8e8" font-size="11" text-anchor="end">swap_%date:yyyyMMdd_hhmmss%</text>
<rect x="34" y="267" width="552" height="19" rx="4" fill="#3a3a3a" stroke="#555" stroke-width="1"/>
<text x="42" y="280" fill="#9a9a9a" font-size="11">pending_chunks</text>
<text x="578" y="280" fill="#e8e8e8" font-size="11" text-anchor="end">source frames (preview)</text>
<rect x="25" y="288" width="570" height="24" fill="#242424" opacity="0.4"/>
<rect x="34" y="291" width="552" height="19" rx="4" fill="#3a3a3a" stroke="#555" stroke-width="1"/>
<text x="42" y="304" fill="#9a9a9a" font-size="11">require_reviewed</text>
<text x="578" y="304" fill="#e8e8e8" font-size="11" text-anchor="end">False</text>
<text x="310.0" y="333" fill="#9a9a9a" font-size="10.5" text-anchor="middle" font-style="italic">The assembly's player and per-join chips render below the widgets shown here.</text>
</svg>
